<svg width="316" height="336" viewBox="0 0 316 336" fill="none" xmlns="http://www.w3.org/2000/svg">
<g clip-path="url(#clip0_3_188)">
<rect width="316" height="336" rx="24" fill="url(#paint0_radial_3_188)"/>
<path opacity="0.18" d="M6.528 294.544C6.528 292.88 7.808 291.6 9.472 291.6H16.64C18.304 291.6 19.584 290.32 19.584 288.656V281.744C19.584 280.08 18.304 278.8 16.64 278.8H9.472C7.808 278.8 6.528 277.52 6.528 275.856V240.4H19.584V275.856C19.584 277.52 20.864 278.8 22.528 278.8H68.864C70.528 278.8 71.808 277.52 71.808 275.856V240.4H84.864V275.856C84.864 277.52 83.584 278.8 81.92 278.8H74.752C73.088 278.8 71.808 280.08 71.808 281.744V288.656C71.808 290.32 73.088 291.6 74.752 291.6H81.92C83.584 291.6 84.864 292.88 84.864 294.544V330H71.808V294.544C71.808 292.88 70.528 291.6 68.864 291.6H22.528C20.864 291.6 19.584 292.88 19.584 294.544V330H6.528V294.544ZM161.775 253.2C163.439 253.2 164.719 254.48 164.719 256.144V266H151.663V256.144C151.663 254.48 150.383 253.2 148.719 253.2H102.383C100.719 253.2 99.439 254.48 99.439 256.144V314.256C99.439 315.92 100.719 317.2 102.383 317.2H148.719C150.383 317.2 151.663 315.92 151.663 314.256V304.4H164.719V314.256C164.719 315.92 163.439 317.2 161.775 317.2H154.607C152.943 317.2 151.663 318.48 151.663 320.144V327.056C151.663 328.72 150.383 330 148.719 330H102.383C100.719 330 99.439 328.72 99.439 327.056V320.144C99.439 318.48 98.159 317.2 96.495 317.2H89.327C87.663 317.2 86.383 315.92 86.383 314.256V256.144C86.383 254.48 87.663 253.2 89.327 253.2H96.495C98.159 253.2 99.439 251.92 99.439 250.256V243.344C99.439 241.68 100.719 240.4 102.383 240.4H148.719C150.383 240.4 151.663 241.68 151.663 243.344V250.256C151.663 251.92 152.943 253.2 154.607 253.2H161.775ZM179.294 243.344C179.294 241.68 180.574 240.4 182.238 240.4H228.574C230.238 240.4 231.518 241.68 231.518 243.344V250.256C231.518 251.92 232.798 253.2 234.462 253.2H241.63C243.294 253.2 244.574 254.48 244.574 256.144V266H231.518V256.144C231.518 254.48 230.238 253.2 228.574 253.2H182.238C180.574 253.2 179.294 254.48 179.294 256.144V275.856C179.294 277.52 180.574 278.8 182.238 278.8H218.462V291.6H182.238C180.574 291.6 179.294 292.88 179.294 294.544V314.256C179.294 315.92 180.574 317.2 182.238 317.2H228.574C230.238 317.2 231.518 315.92 231.518 314.256V304.4H244.574V314.256C244.574 315.92 243.294 317.2 241.63 317.2H234.462C232.798 317.2 231.518 318.48 231.518 320.144V327.056C231.518 328.72 230.238 330 228.574 330H182.238C180.574 330 179.294 328.72 179.294 327.056V320.144C179.294 318.48 178.014 317.2 176.35 317.2H169.182C167.518 317.2 166.238 315.92 166.238 314.256V294.544C166.238 292.88 167.518 291.6 169.182 291.6H176.35C178.014 291.6 179.294 290.32 179.294 288.656V281.744C179.294 280.08 178.014 278.8 176.35 278.8H169.182C167.518 278.8 166.238 277.52 166.238 275.856V256.144C166.238 254.48 167.518 253.2 169.182 253.2H176.35C178.014 253.2 179.294 251.92 179.294 250.256V243.344ZM278.733 330V256.144C278.733 254.48 277.453 253.2 275.789 253.2H246.093V240.4H275.789C277.453 240.4 278.733 241.68 278.733 243.344V250.256C278.733 251.92 280.013 253.2 281.677 253.2H288.845C290.509 253.2 291.789 251.92 291.789 250.256V243.344C291.789 241.68 293.069 240.4 294.733 240.4H324.429V253.2H294.733C293.069 253.2 291.789 254.48 291.789 256.144V330H278.733Z" fill="#6F40FF"/>
</g>
<defs>
<radialGradient id="paint0_radial_3_188" cx="0" cy="0" r="1" gradientUnits="userSpaceOnUse" gradientTransform="translate(301 302) rotate(-130.307) scale(380.284 357.648)">
<stop stop-color="#6F40FF"/>
<stop offset="0.743591" stop-color="#1A1820"/>
<stop offset="1" stop-color="#161616"/>
</radialGradient>
<clipPath id="clip0_3_188">
<rect width="316" height="336" rx="24" fill="white"/>
</clipPath>
</defs>
</svg>
