<svg width="181" height="137" viewBox="0 0 181 137" fill="none" xmlns="http://www.w3.org/2000/svg">
<rect x="138" width="43" height="25" rx="4" fill="#6F40FF"/>
<rect x="138" y="28" width="43" height="25" rx="4" fill="#6F40FF"/>
<rect x="138" y="56" width="43" height="25" rx="4" fill="#6F40FF"/>
<rect x="138" y="84" width="43" height="25" rx="4" fill="#6F40FF"/>
<rect x="138" y="112" width="43" height="25" rx="4" fill="#6F40FF"/>
<rect x="92" y="28" width="43" height="25" rx="4" fill="#6F40FF"/>
<rect x="92" y="56" width="43" height="25" rx="4" fill="#6F40FF"/>
<rect x="92" y="84" width="43" height="25" rx="4" fill="#6F40FF"/>
<rect x="92" y="112" width="43" height="25" rx="4" fill="#6F40FF"/>
<rect x="46" y="56" width="43" height="25" rx="4" fill="#6F40FF"/>
<rect x="46" y="84" width="43" height="25" rx="4" fill="#6F40FF"/>
<rect x="46" y="112" width="43" height="25" rx="4" fill="#6F40FF"/>
<rect y="84" width="43" height="25" rx="4" fill="#6F40FF"/>
<rect y="112" width="43" height="25" rx="4" fill="#6F40FF"/>
</svg>
